# xmcd
#
# Track frame offsets: 
#        150
#        14173
#        30478
#        54496
#        79258
#        94813
#        111000
#        127197
#        144994
#        161612
#        180391
#
# Disc length: 2816 seconds
#
# Revision: 3
# Processed by: cddbd v1.5.2PL0 Copyright (c) Steve Scherf et al.
# Submitted via: ExactAudioCopy v1.1
#
DISCID=8e0afe0b
DTITLE=Junip - Fields
DYEAR=2010
DGENRE=Independent
TTITLE0=In every direction
TTITLE1=Always
TTITLE2=Rope and summit
TTITLE3=Without you
TTITLE4=It's alright
TTITLE5=Howl
TTITLE6=Sweet and bitter
TTITLE7=Don't let it pass
TTITLE8=Off point
TTITLE9=To the grain 
TTITLE10=Tide
EXTD=YEAR: 2010
EXTT0=
EXTT1=
EXTT2=
EXTT3=
EXTT4=
EXTT5=
EXTT6=
EXTT7=
EXTT8=
EXTT9=
EXTT10=
PLAYORDER=
